<?xml version="1.0" encoding="UTF-8"?>
<svg version="1.1" xmlns="http://www.w3.org/2000/svg" width="512" height="512">
<path d="M0 0 C1.01790619 0.00215515 2.03581238 0.0043103 3.08456421 0.00653076 C17.69363523 0.05620146 32.02575853 0.30709809 46.375 3.3125 C47.34985352 3.51117676 48.32470703 3.70985352 49.32910156 3.91455078 C97.7109774 14.03517194 141.69928269 35.9516877 177.375 70.3125 C178.3640332 71.26068604 178.3640332 71.26068604 179.37304688 72.22802734 C188.86130305 81.37247479 197.6012044 90.66984009 205.375 101.3125 C206.23306152 102.46355017 207.09113451 103.61459177 207.94921875 104.765625 C213.98736829 112.95680614 219.34595521 121.47054105 224.375 130.3125 C224.73948242 130.94430176 225.10396484 131.57610352 225.47949219 132.22705078 C247.08534998 169.97532572 256.85198095 212.74189997 256.6875 255.9375 C256.68534485 256.95540619 256.6831897 257.97331238 256.68096924 259.02206421 C256.63129854 273.63113523 256.38040191 287.96325853 253.375 302.3125 C253.07698486 303.77478027 253.07698486 303.77478027 252.77294922 305.26660156 C242.65232806 353.6484774 220.7358123 397.63678269 186.375 433.3125 C185.74287598 433.97185547 185.11075195 434.63121094 184.45947266 435.31054688 C175.31502521 444.79880305 166.01765991 453.5387044 155.375 461.3125 C154.22394983 462.17056152 153.07290823 463.02863451 151.921875 463.88671875 C143.73224019 469.92427396 135.22961724 475.30707302 126.375 480.3125 C125.66778809 480.7146875 124.96057617 481.116875 124.23193359 481.53125 C101.09654164 494.5566741 75.92537591 503.30551461 49.9375 508.625 C49.21860596 508.77235596 48.49971191 508.91971191 47.7590332 509.0715332 C33.08339502 511.86090125 18.55831162 512.66142619 3.64770508 512.62817383 C0.70811513 512.6250221 -2.2304558 512.64854926 -5.16992188 512.67382812 C-18.54306192 512.71848737 -31.43916711 511.51301542 -44.625 509.3125 C-46.33055054 509.03031616 -46.33055054 509.03031616 -48.07055664 508.74243164 C-91.33802759 500.97044532 -132.38793216 480.98345309 -165.625 452.3125 C-166.37007813 451.67828125 -167.11515625 451.0440625 -167.8828125 450.390625 C-181.38779833 438.57948485 -194.05918743 425.82889772 -204.625 411.3125 C-205.48149066 410.16255169 -206.33826433 409.01281411 -207.1953125 407.86328125 C-213.23534209 399.67315742 -218.61867614 391.16870382 -223.625 382.3125 C-224.0271875 381.60528809 -224.429375 380.89807617 -224.84375 380.16943359 C-237.8691741 357.03404164 -246.61801461 331.86287591 -251.9375 305.875 C-252.08485596 305.15610596 -252.23221191 304.43721191 -252.3840332 303.6965332 C-255.35789088 288.05024391 -255.99800362 272.57681954 -255.9375 256.6875 C-255.93534485 255.66959381 -255.9331897 254.65168762 -255.93096924 253.60293579 C-255.88129854 238.99386477 -255.63040191 224.66174147 -252.625 210.3125 C-252.42632324 209.33764648 -252.22764648 208.36279297 -252.02294922 207.35839844 C-241.90232806 158.9765226 -219.9858123 114.98821731 -185.625 79.3125 C-184.99287598 78.65314453 -184.36075195 77.99378906 -183.70947266 77.31445312 C-174.56502521 67.82619695 -165.26765991 59.0862956 -154.625 51.3125 C-153.47394983 50.45443848 -152.32290823 49.59636549 -151.171875 48.73828125 C-142.98224019 42.70072604 -134.47961724 37.31792698 -125.625 32.3125 C-124.91778809 31.9103125 -124.21057617 31.508125 -123.48193359 31.09375 C-100.34654164 18.0683259 -75.17537591 9.31948539 -49.1875 4 C-48.46860596 3.85264404 -47.74971191 3.70528809 -47.0090332 3.5534668 C-31.36274391 0.57960912 -15.88931954 -0.06050362 0 0 Z " fill="#7D5024" transform="translate(255.625,-0.3125)"/>
<path d="M0 0 C8.52262632 6.88670424 13.75740981 13.42901635 19.5234375 23.0390625 C19.8534375 13.4690625 20.1834375 3.8990625 20.5234375 -5.9609375 C27.7834375 -5.9609375 35.0434375 -5.9609375 42.5234375 -5.9609375 C42.59302764 17.64021969 42.64649456 41.24135197 42.67887402 64.84259129 C42.69431118 75.80224168 42.7153402 86.76182696 42.74975586 97.72143555 C42.77975496 107.27919226 42.79903537 116.83690179 42.80570298 126.39470428 C42.8095975 131.4506149 42.81868382 136.5063906 42.84062767 141.56225777 C42.86115924 146.33188258 42.86723799 151.10131831 42.86276054 155.87098312 C42.86357835 157.61109257 42.86944386 159.35120908 42.88105392 161.09127998 C43.02853534 184.35844163 38.33386686 208.35012627 21.88842773 225.82739258 C7.60599031 240.29053006 -13.47850015 245.15515669 -33.26928711 245.41918945 C-56.42989063 245.3842112 -78.0802664 240.82775849 -95.859375 224.75 C-104.95246438 215.129775 -109.9639054 204.19726148 -110.4765625 191.0390625 C-103.2165625 191.0390625 -95.9565625 191.0390625 -88.4765625 191.0390625 C-87.4865625 194.3390625 -86.4965625 197.6390625 -85.4765625 201.0390625 C-80.82253255 211.57409393 -72.91801308 217.5874392 -62.46875 221.97265625 C-43.97045206 228.56539168 -23.75889768 227.98088614 -5.9140625 219.6640625 C6.23958576 212.91655209 11.9359972 202.69350047 16.48046875 189.7890625 C19.69234756 178.24073421 19.76584294 167.24827795 19.6484375 155.3515625 C19.63838589 153.57096858 19.6292639 151.79036917 19.62109375 150.00976562 C19.59925698 145.68605991 19.56484787 141.36262324 19.5234375 137.0390625 C19.13961914 137.70075439 18.75580078 138.36244629 18.36035156 139.04418945 C9.19566377 154.62102595 -2.4545654 164.02892608 -19.4765625 170.0390625 C-41.30125527 174.35713532 -63.39707389 171.36172018 -82.4765625 160.0390625 C-101.8537463 146.94857738 -109.76839733 128.83693994 -115.4765625 107.0390625 C-115.65832031 106.34546631 -115.84007812 105.65187012 -116.02734375 104.93725586 C-122.21428009 78.79408735 -117.22969506 48.68256402 -104.0625 25.58984375 C-93.00189368 7.80024787 -77.38546224 -4.05245475 -57.1796875 -9.3828125 C-37.37885396 -13.61767285 -16.90978726 -11.81083602 0 0 Z " fill="#FDFCFC" transform="translate(293.4765625,138.9609375)"/>
<path d="M0 0 C15.8830048 11.09439738 23.44958365 28.0079688 26.9375 46.625 C29.24082005 61.41390324 29.84237128 78.34374828 24.9375 92.625 C24.40962891 94.22794922 24.40962891 94.22794922 23.87109375 95.86328125 C18.38991523 111.25761433 9.8015557 124.8985178 -5.0625 132.625 C-19.14997524 138.2384001 -35.90073287 140.72395845 -50.3671875 134.94140625 C-66.26732389 127.17568746 -77.72107166 115.08594675 -83.6328125 98.3828125 C-87.069586 87.97200154 -88.24403471 78.45226885 -88.25 67.5 C-88.26224609 66.33984375 -88.27449219 65.1796875 -88.28710938 63.984375 C-88.32318363 42.48411642 -82.39300261 21.29243674 -67.0625 5.625 C-47.55021388 -11.12797293 -22.03362116 -13.31636313 0 0 Z " fill="#7D5024" transform="translate(286.0625,154.375)"/>
</svg>
